<svg xmlns="http://www.w3.org/2000/svg" viewBox="0 0 134 125"><path d="M 82 15 H 82.5 L 83.6 15.3 L 85.6 15.8 C 86.6 16.1 87.3 16.3 88.4 16.8 L 91.8 18.2 L 95.6 20 C 97 20.9 98.2 21.5 99.6 22.6 A 51.4 51.4 0 0 1 115.8 41 C 117 43.2 117.9 45.1 118.8 47.6 A 51.4 51.4 0 0 1 120.4 78.6 A 54 54 0 0 1 104.1 106.3 A 56.7 56.7 0 0 1 72.2 121.3 A 63.2 63.2 0 0 1 49.8 120.5 H 49.9 L 50.1 120.6 L 50.3 120.7 L 50.4 120.8 H 50.6 V 120.9 H 50.8 V 121 H 51 V 121.1 A 1.5 1.5 0 0 1 51.3 121.3 A 0.5 0.5 0 0 1 51.3 121.4 A 0.3 0.3 0 0 1 51.3 121.5 L 51.8 121.7 L 53.4 122.1 L 55.7 122.5 L 58.7 123 L 62.5 123.3 A 91.9 91.9 0 0 0 72.1 123.1 A 63.8 63.8 0 0 0 96.1 115.2 A 78.4 78.4 0 0 0 107.5 106.5 A 55.6 55.6 0 0 0 122.9 80.9 A 52.6 52.6 0 0 0 125.3 66.3 A 50.4 50.4 0 0 0 124 52.4 A 47.2 47.2 0 0 0 120 40.4 A 61.5 61.5 0 0 0 106.1 21.9 L 104 20.1 L 102.3 18.8 L 101.3 18 L 101 17.8 L 101.4 18 L 102.4 18.7 A 281.1 281.1 0 0 1 106.4 21.7 L 109 24.2 A 85.5 85.5 0 0 1 114.8 30.9 A 57 57 0 0 1 120.6 88.9 A 57.4 57.4 0 0 1 95.2 116.3 A 78.5 78.5 0 0 1 82.7 121.6 C 80.8 122.2 78.4 122.6 76.7 123 C 74.8 123.4 72.5 123.6 70.9 123.8 A 60.2 60.2 0 0 1 50.2 122.2 L 52.2 122.8 L 55.2 123.5 L 59.2 124.1 C 60.7 124.3 62.9 124.5 64.6 124.5 H 70.7 A 76.2 76.2 0 0 0 84.9 121.9 A 66.5 66.5 0 0 0 108 108.9 A 58.4 58.4 0 0 0 124.8 83.7 C 125.8 80.7 126.9 76.8 127.4 73.7 A 59.4 59.4 0 0 0 108.2 18.7 A 66 66 0 0 0 93.5 9 L 86.1 6.2 A 52.9 52.9 0 0 0 72.4 3.7 A 62.2 62.2 0 0 0 57.8 4.7 L 54.9 5.2 L 53.1 5.7 H 52.5 L 53.1 5.6 L 54.9 5 L 57.7 4.3 A 77.5 77.5 0 0 1 66.5 3.3 A 61.4 61.4 0 0 1 93.7 8.4 A 62.7 62.7 0 0 1 115.3 25.1 C 117.2 27.5 119.3 30.6 120.9 33.2 A 61.2 61.2 0 0 1 108.9 109.1 A 59.4 59.4 0 0 1 85.6 122.6 A 63.7 63.7 0 0 1 59.4 125.3 L 55.3 124.7 L 52.2 124.1 L 50.2 123.6 H 49.6 L 50.3 123.8 A 40.6 40.6 0 0 0 56.3 125.3 A 58.2 58.2 0 0 0 74.6 126.1 A 66.6 66.6 0 0 0 100.3 117.6 A 69.6 69.6 0 0 0 123.3 94.3 A 70.5 70.5 0 0 0 131.2 71.3 C 131.7 67.7 131.9 62.3 131.7 58.7 C 131.4 55.1 130.7 49.9 129.7 46.4 S 127 37.9 125.4 34.6 A 74.8 74.8 0 0 0 118.9 24.1 C 116.8 21.2 113.3 17.4 110.7 15.1 S 104 9.6 101.1 7.9 A 65.6 65.6 0 0 0 60.3 -0.8 A 71 71 0 0 0 43.7 3.5 A 82.7 82.7 0 0 0 32.4 9.7 C 31 10.6 29.3 11.9 28.4 12.7 L 25.7 14.9 L 24.2 16.2 L 23.5 17 L 26.6 14 L 29.6 11.6 L 32.8 9.4 L 36.4 7.1 L 39.8 5.3 L 43.3 3.5 L 46.9 2.1 L 51 0.8 L 54.8 -0.2 L 58.6 -0.9 L 62.9 -1.4 L 66.8 -1.6 H 70.7 L 75 -1.3 L 78.9 -0.7 L 82.7 0.1 L 86.5 1.1 L 90.3 2.4 L 94.3 4 L 97.9 5.7 L 101.3 7.7 L 105 10 L 108.1 12.3 L 111.1 14.9 L 114 17.6 L 117 20.8 L 119.4 23.8 L 121.6 27 L 123.9 30.7 L 125.8 34.2 L 127.4 37.7 L 129 41.7 L 130.1 45.5 L 131.1 49.3 L 131.8 53.3 L 132.3 57.6 L 132.5 61.5 V 65.5 L 132.1 69.8 L 131.5 73.8 L 130.7 77.6 L 129.7 81.5 L 128.3 85.7 L 126.7 89.3 L 125 92.9 L 123 96.3 L 120.6 100 L 118.3 103.2 L 115.7 106.2 L 112.7 109.4 L 109.7 112 L 106.6 114.5 L 103.4 116.8 L 99.6 119.1 L 96.1 120.9 L 92.5 122.6 L 88.3 124.1 L 84.6 125.3 L 80.7 126.3 L 76.3 127 L 72.3 127.4 L 68.3 127.6 H 64.3 L 59.8 127.2 S 71.1 128.7 75.2 128.2 A 70.3 70.3 0 0 0 110.4 113.2 C 113.7 110.4 118.6 105.2 121.4 101.4 A 74.9 74.9 0 0 0 130 85.1 A 81 81 0 0 0 134 64.9 C 134.2 58.9 133 49.1 131.1 43.1 C 129.2 37.2 124.9 28.3 121.3 23.4 A 78.4 78.4 0 0 0 105.3 8 A 81.7 81.7 0 0 0 86.9 -0.8 A 82.3 82.3 0 0 0 70.4 -3.5 C 66.5 -3.5 62 -3.2 61.6 -3.2 A 87.7 87.7 0 0 0 47.3 -0.3 C 44.3 0.7 39 2.9 35.6 4.7 C 32.2 6.4 26.6 10.3 23.6 12.9 C 20.6 15.6 16.2 20.3 13.6 23.6 C 11 27 7.6 33.3 5.8 37.2 A 77.2 77.2 0 0 0 1.4 52 A 88 88 0 0 0 0.4 66 C 0.4 69.6 1.2 75.6 1.9 79 C 2.7 82.4 4.4 88 5.7 90.9 A 73.3 73.3 0 0 0 22 114.3 C 27.7 118.3 26.3 116.6 31.5 118.6 C 39.1 121.6 49.1 118.4 50.8 115 C 52.6 111.7 50.3 102.7 41.2 93.6 C 39.8 92.3 39.2 91.8 37.6 90.1 S 35.6 87.9 34 85.5 C 32.5 83.2 32 82.3 30.6 79.5 C 29.2 76.5 29 75.9 28.1 72.5 C 27.1 69 27.1 68.1 26.8 64.3 C 26.5 60.5 26.4 59.8 27.2 55.5 C 27.9 51.1 27.9 50 29.9 45.6 S 32.4 39.9 35.4 36 S 39.5 31 43.3 28 C 47 25.1 48 24.4 52.3 22.7 S 58.1 20.2 62 19.7 S 67.4 18.7 70.4 18.9 L 74.6 19.1 C 74.8 19.1 75.6 19.1 77.8 19.5 S 81.3 20 84.6 21 C 87.8 22.1 89.6 22.7 93.4 24.8 S 99 28.3 102.4 31.6 S 107.7 36.9 110.3 41.4 C 112.8 45.9 114.3 48.8 115.5 54.1 A 43 43 0 0 1 117 68.3 A 52.8 52.8 0 0 1 108.1 94.8 A 53.5 53.5 0 0 1 89.5 111.7 L 90.9 111.2 L 92.8 110.3 L 95 109.2 L 97.5 107.6 A 57.9 57.9 0 0 0 108.9 97.1 A 88 88 0 0 0 111.7 93.3 C 112.7 92 113.3 90.7 114.1 89.2 A 47.5 47.5 0 0 0 119.3 74.5 A 50.4 50.4 0 0 0 119.9 58.3 C 119.7 56.3 119.4 54.8 118.9 52.9 C 118.6 51.1 118.1 49.6 117.5 47.8 A 32 32 0 0 0 115.5 43 C 114.8 41.4 114.2 40 113.2 38.5 A 48.5 48.5 0 0 0 107.5 30.5 L 104.3 27.5 A 86 86 0 0 0 100.9 24.5 L 97.7 22.1 L 94.6 20.2 A 70 70 0 0 0 88.5 17.2 L 85.9 16.2 L 83.7 15.6 L 82 15.1"/></svg>