<svg xmlns="http://www.w3.org/2000/svg" viewbox="0 0 120 120" width="120" height="120">
 <rect x="0" y="0" width="100%" height="100%" rx="10" fill="#eee"/> 
  
  <g fill="none" transform="scale(5)">
    <path d="M1 18v3h3c0-2-1-3-3-3Zm0-4v2c3 0 5 2 5 5h2c0-4-3-7-7-7Zm0-4v2c5 0 9 4 9 9h2c0-6-5-11-11-11Zm20-7H3L1 5v3h2V5h18v14h-7v2h7l2-2V5l-2-2Z" fill="url(#b)"/>
    <path d="M0 0h24v24H0z"/>
  </g>
  
  <defs>
    <linearGradient id="b" x1="0" y1="0" x2="28" y2="20" gradientUnits="userSpaceOnUse">
      <stop offset="0" stop-color="#F59"/>
      <stop offset="1" stop-color="#70F"/>
    </linearGradient>
  </defs>
</svg>