<svg xmlns="http://www.w3.org/2000/svg" viewBox="16 -50 360 360"><defs>
    <linearGradient id="b" x1="-10%" y1="0" x2="100%" y2="100%" gradientUnits="objectBoundingBox">
      <stop offset="0" stop-color="#F59"/>
      <stop offset="1" stop-color="#70F"/>
    </linearGradient>
  </defs><path fill="url(#b)" d="m373 172h-9a5 5 0 002-6l-38-104c-1-2-4-3-6-3l-25 8v-38c0-3-2-5-5-5h-21c-3 0-5 2-5 5v13h-25v-13c0-3-3-5-5-5h-53c-3 0-5 2-5 5v13h-12v-4c0-3-2-5-5-5h-32v-4c0-3-2-5-5-5h-52c-3 0-5 2-5 5v24h-35c-3 0-5 2-5 5v114h-4v8h350zm-53-102 35 95-21 6-35-94 21-7zm3 102h-26v-70l26 70zm-47-138h11v138h-11v-138zm-10 18v120h-25v-120h25zm-78-18h43v138h-43v-138zm-10 18v120h-12v-120h12zm-22-9v129h-27v-129h27zm-79-9h42v138h-42v-138zm-40 29h30v109h-30v-109z"/></svg>