<svg xmlns="http://www.w3.org/2000/svg" viewbox="5 5 110 110" width="120" height="120">
  
  <g fill="none" transform="scale(5)">
    <path d="M 1 18 V 21 H 4 C 4 19 3 18 1 18 Z M 1 14 V 16 C 4 16 6 18 6 21 H 8 C 8 17 5 14 1 14 Z M 1 10 V 12 C 6 12 10 16 10 21 H 12 C 12 15 7 10 1 10 Z M 21 3 H 3 L 1 5 V 8 H 3 V 6 L 4 5 H 20 L 21 6 V 18 L 20 19 H 13 V 21 H 21 L 23 19 V 5 Z" fill="url(#b)"/>
    <path d="M0 0h24v24H0z"/>
  </g>
  
  <defs>
    <linearGradient id="b" x1="0" y1="0" x2="28" y2="20" gradientUnits="userSpaceOnUse">
      <stop offset="0" stop-color="#F59"/>
      <stop offset="1" stop-color="#70F"/>
    </linearGradient>
  </defs>
</svg>