<svg xmlns="http://www.w3.org/2000/svg" width="512" height="512" viewBox="0 0 80 80">
  <defs>
    <linearGradient id="b" x1="0" y1="0" x2="75%" y2="75%">
      <stop offset="0" stop-color="#F59c"/>
      <stop offset="1" stop-color="#70Fc"/>
    </linearGradient>
  </defs>
  <path transform="translate(0, 14)" d="M45.9.8a21.5 21.5 0 0 0-18.8 11 11.8 11.8 0 0 0-5.1-1.2 11.8 11.8 0 0 0-11.6 9.9 16.3 16.3 0 0 0-10 15 16.3 16.3 0 0 0 16.2 16.2 16.3 16.3 0 0 0 2-.1H64a15.1 15.2 0 0 0 .7 0 15.1 15.2 0 0 0 .7 0h1v-.1a15.1 15.2 0 0 0 13.4-15v-.1a15.1 15.2 0 0 0-12.3-15A21.5 21.5 0 0 0 45.9.9Z" fill="url(#b)"/>
  <path transform="scale(0.115) translate(71,71)" fill="#fff" d="M380 125l-9-1s-96-7-134 119c-34 110-111 105-115 105h-5a102 102 0 015-204c35 0 67 18 86 47l16-11a122 122 0 10-100 188c17 0 97-6 132-119 33-110 111-105 115-105h7a102 102 0 11-94 157l-16 11a122 122 0 10112-187z"/>
</svg>