<svg viewbox="0 0 512 512" width="512" height="512" xmlns="http://www.w3.org/2000/svg">
  <g transform="scale(16)">
    <path d="m 31.71 12.3 a 1 1 0 0 1 -0.71 1.7 h -11.99 a 1 1 0 1 1 0 -2 h 9.58 l -3.99 -3.98 a 1 1 0 1 1 1.42 -1.41 l 5.66 5.65 l 0.03 0.04 z m -30.7 7.7 a 1 1 0 0 0 -1.01 1 a 1 1 0 0 0 1 1 h 12 a 1 1 0 0 0 1 -1 a 1 1 0 0 0 -1 -1 h -12 z" fill="url(#b)"/>
    <path d="m 31.36 22.12 l -5.65 5.66 a 1 1 0 0 1 -1.42 -1.42 l 4.37 -4.36 h -6.67 a 6.53 6.53 0 0 1 -4.1 -1.7 l -5.19 -5.18 a 4.5 4.5 0 0 0 -2.69 -1.12 l -9 0.04 a 1 1 0 0 1 -0.01 -2 l 9 -0.04 c 1.37 0 3.15 0.72 4.12 1.7 l 5.18 5.17 a 4.58 4.58 0 0 0 2.7 1.13 h 9 a 1 1 0 0 1 0.57 1.82 a 1 1 0 0 1 -0.2 0.3 z" fill="url(#a)"/>
  </g>
    <defs>
     <linearGradient id="b" x1="28" y1="0" x2="28" y2="20" gradientUnits="userSpaceOnUse">
      <stop offset="0" stop-color="#F59c"/>
      <stop offset="1" stop-color="#E37c"/>
    </linearGradient>
    
     <linearGradient id="a" x1="23" y1="25" x2="19" y2="7" gradientUnits="userSpaceOnUse">
      <stop offset="0" stop-color="#70Fc"/>
      <stop offset="1" stop-color="#96Fc"/>
    </linearGradient>
  </defs>
</svg>