<svg viewbox="0 0 512 512" width="512" height="512" xmlns="http://www.w3.org/2000/svg">
<defs>
  <linearGradient gradientUnits="userSpaceOnUse" id="space" x1="50%" y1="-10%" x2="50%" y2="100%">
    <stop offset="0" stop-color="#fd2"/>
    <stop offset="1" stop-color="#d5b"/>
  </linearGradient>
  <linearGradient id="a" x1="0" y1="0" x2="60%" y2="60%">
    <stop offset="0" stop-color="#2af"/>
    <stop offset="1" stop-color="rgba(250,220,240)"/>
  </linearGradient>
  
  <mask id="circle">
    <circle fill="#fff" stroke-width="8" cx="50%" cy="50%" r="49%" />
  </mask>
</defs>
<rect x="0" y="0" width="100%" height="100%" rx="5%" fill="#214"/>
<g fill="url(#space)" mask="url(#circle)">
  <rect x="0" y="00%" width="100%" height="10%" />
  <rect x="0" y="13%" width="100%" height="10%" />
  <rect x="0" y="26%" width="100%" height="10%" />
  <rect x="0" y="39%" width="100%" height="10%" />
  <rect x="0" y="52%" width="100%" height="10%" />
  <rect x="0" y="65%" width="100%" height="10%" />
  <rect x="0" y="78%" width="100%" height="10%" />
  <rect x="0" y="91%" width="100%" height="10%" />
  <path fill="#fff" stroke="url(#space)" transform="scale(0.8) translate(75,80)" d="M380 125l-9-1s-96-7-134 119c-34 110-111 105-115 105h-5a102 102 0 015-204c35 0 67 18 86 47l16-11a122 122 0 10-100 188c17 0 97-6 132-119 33-110 111-105 115-105h7a102 102 0 11-94 157l-16 11a122 122 0 10112-187z"/>
 </g>
</svg>