<svg xmlns="http://www.w3.org/2000/svg" viewBox="0 0 370 370">
    <rect x="100" y="166" width="240" rx="50" height="92" fill="#fff"/>
  
  <path d="m 253 257 l 2 -7 c 2 -7 1 -15 -3 -20 c -3 -5 -9 -7 -16 -8 l -131 -1 a 3 3 0 0 1 -2 -1 a 3 3 0 0 1 0 -3 a 3 3 0 0 1 3 -2 l 132 -2 c 16 -1 33 -13 39 -29 l 8 -20 a 5 5 0 0 0 0 -1 a 4 4 0 0 0 0 -1 a 86 86 0 0 0 -166 -9 a 30 30 0 0 0 -61 41 a 55 55 0 0 0 -53 63 a 3 3 0 0 0 3 2 h 242 a 3 3 0 0 0 3 -2 z" fill="url(#a)"/>
  <path d="m 297 166 h -4 a 2 2 0 0 0 -1 0 a 2 2 0 0 0 -1 1 l -5 18 c -2 8 -1 15 2 20 c 4 5 9 8 16 8 l 28 2 a 3 3 0 0 1 2 1 a 3 3 0 0 1 1 2 a 4 4 0 0 1 -3 3 l -30 1 c -15 1 -32 14 -38 29 l -2 6 a 2 2 0 0 0 1 2 h 100 a 3 3 0 0 0 3 -2 a 72 72 0 0 0 -69 -91 z" fill="url(#b)"/>
  
    <path transform="scale(0.31) translate(162.5,310)" fill="#fff" d="M380 125l-9-1s-96-7-134 119c-34 110-111 105-115 105h-5a102 102 0 015-204c35 0 67 18 86 47l16-11a122 122 0 10-100 188c17 0 97-6 132-119 33-110 111-105 115-105h7a102 102 0 11-94 157l-16 11a122 122 0 10112-187z"/>
  
    <defs>
    <linearGradient id="b" x1="28" y1="0" x2="28" y2="20" gradientUnits="userSpaceOnUse">
      <stop offset="0" stop-color="#F59"/>
      <stop offset="1" stop-color="#E37"/>
    </linearGradient>
    
    <linearGradient id="a" x1="23" y1="25" x2="19" y2="7" gradientUnits="userSpaceOnUse">
      <stop offset="0" stop-color="#70F"/>
      <stop offset="1" stop-color="#96F"/>
    </linearGradient>
  </defs>
</svg>