<svg xmlns="http://www.w3.org/2000/svg" viewBox="0 0 180 180">
  <rect fill="url(#a)" rx="10" x="0" y="0" width="180" height="180" />
  <path fill="#fff" d="m 0 263 z m 143 -215 c 16 4 28 15 33 30 l 1 18 c -1 13 -2 20 -7 33 l -5 9 h -14 l -12 -1 v -10 c 0 -7 0 -12 2 -18 l 2 -7 c -1 0 -5 7 -7 14 l -3 6 l -2 -5 c -5 -9 -11 -17 -19 -24 c -9 -9 -13 -11 -5 -3 l 12 14 c 5 9 11 22 11 29 l 1 5 h -13 c -14 0 -17 0 -17 -3 s -7 -16 -12 -21 c -13 -15 -35 -25 -60 -30 c -16 -2 -27 -9 -27 -17 c 0 -4 2 -5 9 -6 c 4 0 8 -1 11 -3 l 8 -2 l 5 -1 c 1 -2 7 -2 8 0 l 22 1 c 21 -1 22 -1 34 -4 l 17 -5 h 12 z m -65 63 c 6 6 9 9 12 15 c 6 12 6 12 -5 12 l -9 -1 l -3 -10 c -4 -10 -9 -21 -13 -27 l -2 -3 l 6 3 l 14 11 z"/>
  
   <defs>
    <linearGradient id="a" x1="-10%" y1="-10%" x2="80%" y2="80%" gradientUnits="userSpaceOnUse">
      <stop offset="0" stop-color="#F59"/>
      <stop offset="1" stop-color="#70Fc"/>
    </linearGradient>
  </defs>
</svg>