<svg xmlns="http://www.w3.org/2000/svg">
<!--  METRICS  -->
<symbol id="monitor" viewBox="0 0 120 120" font-size="48" font-family="helvetica">
 <rect x="0" y="0" width="100%" height="100%" rx="10" fill="#eee"/>

 <line x1="15" y1="90" x2="30" y2="40" stroke="#ccc"  stroke-width="1" />
  <line x1="30" y1="40" x2="80" y2="60" stroke="#ccc"  stroke-width="1" />
  <line x1="80" y1="60" x2="100" y2="15" stroke="#ccc"  stroke-width="1" />

 <circle cx="15" cy="90" r="7" fill="url(#c)"/>
 <circle cx="30" cy="40" r="7" fill="url(#c)"/>
 <circle cx="80" cy="60" r="7" fill="url(#c)"/>
 <circle cx="100" cy="15" r="7" fill="url(#c)"/>
</symbol>
<!--  END METRICS -->

<!-- DEBUG -->
<symbol id="debug" viewBox="0 0 120 120" font-size="48" font-family="Tahoma">
 <rect x="0" y="0" width="100%" height="100%" rx="10" fill="#eee"/>

<g fill="url(#b)">
 <rect x="90" y="40" width="25" height="5"/>
 <rect x="90" y="60" width="25" height="5"/>
 <rect x="90" y="80" width="25" height="5"/>
</g>
<g transform="translate(-85,0)" fill="url(#b)">
 <rect x="90" y="40" width="25" height="5"/>
 <rect x="90" y="60" width="25" height="5"/>
 <rect x="90" y="80" width="25" height="5"/>
</g>

 <rect x="30" y="20" width="60" height="80" fill="url(#b)"/>
 <rect x="25" y="30" width="70" height="70" fill="url(#a)"/>

 <text x="52.5" y="80" fill="url(#b)">!</text>
  </symbol>
<!-- END DEBUG -->
<!-- NOTES  -->
  <symbol id="notes" viewBox="0 0 120 120" font-size="48" font-family="helvetica">
 <rect x="0" y="0" width="100%" height="100%" rx="10" fill="#eee"/>

 <path d="m 80 120 v -30 q 0 -10 10 -10 h 30 z" fill="#ddd"/>

 <text x="5" y="50" fill="url(#c)">Pu</text>
</symbol>
<!--  END NOTES  -->
<!--  STREAM  -->
 <symbol id="stream" viewbox="0 0 120 120">
 <rect x="0" y="0" width="100%" height="100%" rx="10" fill="#eee"/>

  <g fill="none" transform="scale(5)">
    <path d="M1 18v3h3c0-2-1-3-3-3Zm0-4v2c3 0 5 2 5 5h2c0-4-3-7-7-7Zm0-4v2c5 0 9 4 9 9h2c0-6-5-11-11-11Zm20-7H3L1 5v3h2V5h18v14h-7v2h7l2-2V5l-2-2Z" fill="url(#c)"/>
    <path d="M0 0h24v24H0z"/>
  </g>
</symbol>
<!--  END STREAM  -->


<!--  GRADIENTS  -->
  <defs>
    <linearGradient id="b" x1="28" y1="0" x2="28" y2="20" gradientUnits="userSpaceOnUse">
      <stop offset="0" stop-color="#F59"/>
      <stop offset="1" stop-color="#E37"/>
    </linearGradient>

    <linearGradient id="a" x1="23" y1="25" x2="19" y2="7" gradientUnits="userSpaceOnUse">
      <stop offset="0" stop-color="#70F"/>
      <stop offset="1" stop-color="#96F"/>
    </linearGradient>

     <linearGradient id="c" x1="0" y1="25" x2="19" y2="7" gradientUnits="userSpaceOnUse">
      <stop offset="0" stop-color="#F59"/>
      <stop offset="1" stop-color="#70F"/>
    </linearGradient>
  </defs>

</svg>